# ProBuilder 5.1.1
# https://unity3d.com/unity/features/worldbuilding/probuilder
# 27/03/2024 16:53:43

mtllib ./Room_1,_2.mtl
o Room 1, 2

g Room 1, 2
v 10 -1 -24
v -5 -1 -24
v 10 0 -24
v -5 0 -24
v -5 -1 -31
v 10 -1 -31
v -5 0 -31
v 10 0 -31
v 11 -1 -30
v 11 -1 -25
v 11 0 -30
v 11 0 -25
v 10 -1 -30
v -5 -1 -30
v 10 -1 -25
v -5 -1 -25
v -5 0 -30
v 10 0 -30
v 10 6 -30
v -5 6 -30
v 10 6 -31
v -5 6 -31
v 10 0 -25
v 10 7 -25
v 10 7 -30
v 11 7 -25
v 11 7 -30
v 10 6 -25
v 11 6 -25
v 11 6 -30
v -5 0 -25
v -5 6 -25
v -5 6 -24
v 10 6 -24
v -6 6 -25
v -6 6 -30
v -6 7 -25
v -6 7 -30
v -5 7 -25
v -5 7 -30
v -6 -1 -25
v -6 -1 -30
v -6 0 -25
v -6 0 -30
v -40 -1 -25
v -40 0 -26
v -5 0 -27
v -4.999999 0 -28
v -6 6 -27.5
v -6 6 -29.5
v -5 6 -29.5
v -4.999999 6 -27.5
v -6 0 -28
v -6 6 -28
v -4.999999 6 -28
v -6 6 -27
v -5.5 6 -27
v -5 6 -27
v -6 2 -27
v -6 2 -28
v -4.999999 2 -28
v -5 2 -27
v -5.5 2 -27
v -6 0 -27
v -6 3 -27
v -5.5 0 -27
v -5 3 -27
v -5.5 3 -27
v -5 3 -28
v -5 6 -28
v -5.5 6 -28
v -5.5 3 -28
v -6 3 -28
v -5 6 -26.5
v -5.5 6 -26.5
v -5 6 -27.5
v -5.5 6 -27.5
v -5.5 2 -28
v -5 2 -28
v -6 6 -26.5
v -6 0 -19
v -6 -1 -19
v -22 0 -19
v -22 -1 -19
v -22 0 -27
v -22 0 -25
v -22 -1 -25
v -22 -1 -30
v -6 -1 -36
v -6 0 -36
v -22 -1 -36
v -22 0 -36
v -22 0 -28
v -5 -1 -35
v -5 0 -35
v -22 -1 -35
v -6 -1 -35
v -22 0 -30
v -6 0 -35
v -22 0 -35
v -40 0 -29
v -40 -1 -30
v -40 0 -35
v -40 -1 -35
v -5 0 -20
v -5 -1 -20
v -22 0 -20
v -6 0 -20
v -6 -1 -20
v -22 -1 -20
v -40 -1 -20
v -40 0 -20
v -6 9 -35
v -22 9 -35
v -6 9 -36
v -22 9 -36
v -23 0 -35
v -23 0 -36
v -23 9 -35
v -23 9 -36
v -22 10 -20
v -6 10 -20
v -22 10 -19
v -6 10 -19
v -22 9 -20
v -6 9 -20
v -23 0 -19
v -23 0 -20
v -23 9 -19
v -23 9 -20
v -6 9 -19
v -22 9 -19
v -6 9 -25
v -5 9 -20
v -5 9 -25
v -6 9 -30
v -5 9 -30
v -5 9 -35
v -23 0 -27
v -22 15 -20
v -23 15 -20
v -22 15 -27
v -23 15 -27
v -22 9 -28
v -23 9 -28
v -23 0 -28
v -23 15 -35
v -22 15 -35
v -23 15 -28
v -22 15 -28
v -23 2 -27
v -23 6 -27
v -23 9 -27
v -22 9 -27
v -22 6 -27
v -22 2 -27
v -22 6 -28
v -23 6 -28
v -22 2 -28
v -23 2 -28
v -23 0 -30
v -23 -1 -30
v -23 -1 -35
v -23 0 -25
v -23 -1 -25
v -23 -1 -20
v -22 10 -35
v -6 10 -35
v -39 0 -35
v -39 0 -29
v -39 -1 -30
v -39 -1 -35
v -23 -1 -36
v -39 -1 -36
v -39 0 -36
v -39 0 -26
v -39 -1 -25
v -39 -1 -20
v -39 0 -20
v -23 -1 -19
v -39 0 -19
v -39 -1 -19
v -39 15 -35
v -23 15 -36
v -39 15 -36
v -39 16 -20
v -23 16 -20
v -39 16 -19
v -23 16 -19
v -39 15 -20
v -39 15 -19
v -23 15 -19
v -39 15 -26
v -40 15 -20
v -40 15 -26
v -40 15 -35
v -39 15 -29
v -40 15 -29
v -39 3 -29
v -39 3 -26
v -40 3 -26
v -40 3 -29
v -40 4 -35
v -39 4 -35
v -39 4 -20
v -40 4 -20
v -40 7 -26
v -39 7 -26
v -39 7 -29
v -40 7 -29
v -39 16 -35
v -23 16 -35
v -40 2 -29
v -40 1.333333 -29
v -40 1.333333 -26
v -40 2 -26

vt 0 -1
vt -15 -1
vt 0 0
vt -15 0
vt 15 -1
vt 15 0
vt -5 -1
vt -5 0
vt 0 5
vt -15 5
vt -1 0
vt -1 -1
vt 1 -1
vt 1 0
vt 0 6
vt -15 6
vt 1 6
vt -1 6
vt 15 6
vt 1 5
vt -1 5
vt 5 0
vt 5 6
vt -5 6
vt -6 0
vt -6 -1
vt 5 -1
vt 6 -1
vt 6 0
vt 15 5
vt 6 6
vt -6 6
vt 5 7
vt 0 7
vt 1 7
vt -1 7
vt -5 7
vt -15 7
vt 15 7
vt -16 5
vt -16 0
vt -16 -1
vt 16 -1
vt 16 0
vt 4 0
vt 15 3
vt 15 2
vt 16 2.5
vt 16 0.5
vt 15 0.5
vt 15 2.5
vt 2 0
vt 2 6
vt 16 6
vt -1.999993 0
vt -1.999993 6
vt -15 0
vt -15 6
vt -16 6
vt 16 3
vt 15.5 3
vt 16 5
vt 16 2
vt 15.5 0
vt 15.5 6
vt -3 0
vt -3 6
vt -3 3
vt 3 0
vt 3 3
vt 3 6
vt -2 3
vt -2 6
vt 15 3.5
vt 15.5 3.5
vt 15 2.5
vt 15.5 2.5
vt -15.5 3
vt -15 3
vt -15.5 2
vt -15 2
vt 16 3.5
vt 2 3
vt -16 3
vt -16 2
vt -3 2
vt -2 2
vt 15 2
vt 15.5 2
vt 2 2
vt 3 2
vt -32 0
vt -32 -1
vt 32 3
vt 32 5
vt -32 5
vt 32 -1
vt 32 0
vt 32 2
vt -32 -5
vt -16 -5
vt 16 -5
vt 32 -5
vt -10 0
vt -10 -1
vt 32 10
vt 16 10
vt -16 10
vt -32 10
vt 10 -1
vt 10 0
vt -32 -6
vt -16 -6
vt 16 -6
vt 32 -6
vt -16 9
vt -32 9
vt 6 9
vt 5 9
vt -5 9
vt -6 9
vt 32 9
vt 16 9
vt -11 0
vt -11 -1
vt 32 11
vt 16 11
vt -16 11
vt -32 11
vt 11 -1
vt 11 0
vt 11 9
vt 10 9
vt -10 9
vt -11 9
vt 15 10
vt -15 10
vt -15 9
vt 15 9
vt -15 -5
vt 15 -5
vt 0 9
vt -15 2
vt -15 2.5
vt -16 2.5
vt -15 3.5
vt -15.5 3.5
vt -16 3.5
vt -16 7
vt 16 7
vt -33 11
vt -33 10
vt -33 9
vt -33 0
vt 33 10
vt 33 11
vt -33 3
vt -32 3
vt 33 3
vt -33 -5
vt -33 -6
vt 33 0
vt 33 9
vt 33 -6
vt 33 -5
vt -2 9
vt -2 0
vt 33 2
vt -32 2
vt -33 2
vt 2 9
vt 3 6
vt 3 9
vt -3 9
vt 32 6
vt 33 6
vt 2 6
vt 33 -1
vt 33 5
vt -33 5
vt -33 -1
vt 11 10
vt 10 10
vt -10 10
vt -11 10
vt -5 10
vt 5 10
vt 49 -5
vt 49 1
vt -49 0
vt -49 -5
vt 49 -1
vt 49 0
vt 49 4
vt -49 5
vt -49 10
vt 49 10
vt -49 -1
vt -49 -6
vt 49 -6
vt -50 0
vt -50 -5
vt 50 -1
vt 50 0
vt -50 5
vt -50 10
vt -50 -1
vt 49 11
vt -49 11
vt 49 15
vt 33 15
vt 11 15
vt 10 15
vt -10 15
vt -11 15
vt -33 15
vt -49 15
vt 6 15
vt 5 15
vt -5 15
vt -6 15
vt -32 15
vt -3 15
vt 3 15
vt -2 15
vt 2 15
vt 32 15
vt 50 10
vt 50 4
vt 50 -5
vt 50 1
vt -4 0
vt -4 3
vt -10 4
vt -49 4
vt -50 4
vt -1 3
vt 5 4
vt -50 15
vt 50 15
vt -1 15
vt 1 3
vt -5 4
vt 1 15
vt -49 3
vt -50 3
vt 10 4
vt 4 3
vt 4 7
vt 4 15
vt -4 15
vt -4 7
vt 49 7
vt 50 7
vt 50 3
vt 49 3
vt -50 4
vt -49 4
vt -50 1
vt -49 1
vt 49 16
vt 33 16
vt 11 16
vt 10 16
vt -10 16
vt -11 16
vt -33 16
vt -49 16
vt -5 16
vt 5 16
vt 1 2
vt 1 1.333333
vt 4 1.333333
vt 4 2
vt -15.5 0
vt 15 0

vn 0 0 1
vn 0 0 -1
vn 1 0 0
vn 0 -1 0
vn -1 0 0
vn 0 1 0
vn 0 0 0

usemtl ProBuilder_Default_URP
f 48/47/6 18/3/6 17/6/6
f 23/9/6 18/3/6 48/47/6
f 23/9/6 48/47/6 47/46/6
f 23/9/6 47/46/6 31/30/6
f 63/61/6 60/63/6 59/60/6
f 60/63/6 63/61/6 61/47/6
f 63/61/6 62/46/6 61/47/6
f 67/68/3 58/67/3 32/24/3
f 31/8/3 67/68/3 32/24/3
f 31/8/3 47/66/3 67/68/3
f 65/70/5 64/69/5 43/22/5
f 35/23/5 65/70/5 43/22/5
f 35/23/5 56/71/5 65/70/5
f 67/46/2 47/6/2 68/61/2
f 47/6/2 66/64/2 68/61/2
f 68/61/2 66/64/2 65/60/2
f 66/64/2 64/44/2 65/60/2
f 70/19/2 69/46/2 71/65/2
f 69/46/2 72/61/2 71/65/2
f 71/65/2 72/61/2 54/54/2
f 72/61/2 73/60/2 54/54/2
f 78/80/4 62/79/4 63/78/4
f 78/80/4 79/81/4 62/79/4
f 60/85/4 63/78/4 59/84/4
f 60/85/4 78/80/4 63/78/4
f 99/102/6 98/98/6 44/44/6
f 99/102/6 100/103/6 98/98/6
f 98/98/6 53/63/6 44/44/6
f 98/98/6 93/99/6 53/63/6
f 85/94/6 43/62/6 64/60/6
f 85/94/6 86/95/6 43/62/6
f 93/99/6 64/60/6 53/63/6
f 93/99/6 85/94/6 64/60/6
f 107/106/6 43/62/6 86/95/6
f 107/106/6 108/107/6 43/62/6
f 103/8/5 102/1/5 101/14/5
f 103/8/5 104/7/5 102/1/5
f 46/45/5 101/14/5 45/27/5
f 45/27/5 101/14/5 102/1/5
f 111/110/5 46/45/5 45/27/5
f 111/110/5 112/111/5 46/45/5
f 51/50/6 50/49/6 49/48/6
f 52/51/6 51/50/6 49/48/6
f 50/49/6 20/6/6 36/44/6
f 50/49/6 51/50/6 20/6/6
f 76/76/6 75/75/6 74/74/6
f 76/76/6 77/77/6 75/75/6
f 77/77/6 80/82/6 75/75/6
f 77/77/6 49/48/6 80/82/6
f 32/30/6 58/46/6 57/61/6
f 57/61/6 56/60/6 35/62/6
f 32/30/6 57/61/6 35/62/6
f 155/67/3 154/174/3 125/134/3
f 107/104/3 155/67/3 125/134/3
f 107/104/3 156/86/3 155/67/3
f 107/104/3 85/66/3 156/86/3
f 151/91/5 139/69/5 128/111/5
f 152/172/5 151/91/5 128/111/5
f 130/133/5 152/172/5 128/111/5
f 130/133/5 153/173/5 152/172/5
f 144/122/2 157/175/2 145/163/2
f 157/175/2 158/176/2 145/163/2
f 157/175/2 159/99/2 158/176/2
f 159/99/2 160/168/2 158/176/2
f 117/165/6 98/98/6 100/103/6
f 117/165/6 161/162/6 98/98/6
f 161/162/6 93/99/6 98/98/6
f 161/162/6 146/168/6 93/99/6
f 146/168/6 85/94/6 93/99/6
f 146/168/6 139/159/6 85/94/6
f 139/159/6 86/95/6 85/94/6
f 139/159/6 164/179/6 86/95/6
f 164/179/6 107/106/6 86/95/6
f 164/179/6 128/155/6 107/106/6
f 169/188/6 161/162/6 117/165/6
f 169/188/6 170/189/6 161/162/6
f 170/189/6 146/168/6 161/162/6
f 176/194/6 164/179/6 139/159/6
f 170/189/6 139/159/6 146/168/6
f 170/189/6 176/194/6 139/159/6
f 176/194/6 128/155/6 164/179/6
f 176/194/6 179/197/6 128/155/6
f 171/190/4 163/160/4 162/154/4
f 171/190/4 172/191/4 163/160/4
f 177/195/4 162/154/4 165/180/4
f 177/195/4 171/190/4 162/154/4
f 178/196/4 165/180/4 166/152/4
f 178/196/4 177/195/4 165/180/4
f 142/94/6 141/155/6 140/106/6
f 142/94/6 143/159/6 141/155/6
f 150/99/6 143/159/6 142/94/6
f 150/99/6 149/168/6 143/159/6
f 149/168/6 148/103/6 147/165/6
f 149/168/6 150/99/6 148/103/6
f 215/273/5 46/45/5 112/111/5
f 216/274/5 215/273/5 112/111/5
f 206/247/5 216/274/5 112/111/5
f 206/247/5 201/248/5 216/274/5
f 103/8/5 101/14/5 214/272/5
f 103/8/5 214/272/5 213/271/5
f 203/243/5 103/8/5 213/271/5
f 203/243/5 213/271/5 202/242/5
f 205/234/3 193/251/3 190/214/3
f 205/234/3 208/252/3 193/251/3
f 205/234/3 200/233/3 208/252/3
f 207/249/5 201/248/5 206/247/5
f 195/250/5 207/249/5 206/247/5
f 194/213/5 195/250/5 206/247/5
f 214/272/5 101/14/5 46/45/5
f 214/272/5 46/45/5 215/273/5
f 213/271/5 214/272/5 215/273/5
f 213/271/5 215/273/5 216/274/5
f 4/4/1 2/2/1 1/1/1
f 1/1/1 3/3/1 4/4/1
f 8/3/2 6/1/2 5/5/2
f 5/5/2 7/6/2 8/3/2
f 12/8/3 10/7/3 9/1/3
f 9/1/3 11/3/3 12/8/3
f 16/10/4 14/4/4 13/3/4
f 13/3/4 15/9/4 16/10/4
f 6/1/4 13/3/4 14/4/4
f 14/4/4 5/2/4 6/1/4
f 5/12/5 14/1/5 17/3/5
f 17/3/5 7/11/5 5/12/5
f 8/14/3 18/3/3 13/1/3
f 13/1/3 6/13/3 8/14/3
f 22/5/6 20/6/6 19/3/6
f 19/3/6 21/1/6 22/5/6
f 20/16/1 17/4/1 18/3/1
f 18/3/1 19/15/1 20/16/1
f 19/15/3 18/3/3 8/14/3
f 8/14/3 21/17/3 19/15/3
f 22/18/5 7/11/5 17/3/5
f 17/3/5 20/15/5 22/18/5
f 21/15/2 8/3/2 7/6/2
f 7/6/2 22/19/2 21/15/2
f 10/20/4 15/9/4 13/3/4
f 13/3/4 9/14/4 10/20/4
f 9/12/2 13/1/2 18/3/2
f 18/3/2 11/11/2 9/12/2
f 12/14/1 23/3/1 15/1/1
f 15/1/1 10/13/1 12/14/1
f 27/11/6 25/3/6 24/9/6
f 24/9/6 26/21/6 27/11/6
f 19/15/5 18/3/5 23/22/5
f 23/22/5 28/23/5 19/15/5
f 28/15/1 23/3/1 12/14/1
f 12/14/1 29/17/1 28/15/1
f 30/18/2 11/11/2 18/3/2
f 18/3/2 19/15/2 30/18/2
f 29/24/3 12/8/3 11/3/3
f 11/3/3 30/15/3 29/24/3
f 2/16/4 16/10/4 15/9/4
f 15/9/4 1/15/4 2/16/4
f 1/26/3 15/7/3 23/8/3
f 23/8/3 3/25/3 1/26/3
f 4/29/5 31/22/5 16/27/5
f 16/27/5 2/28/5 4/29/5
f 34/15/6 28/9/6 32/30/6
f 32/30/6 33/19/6 34/15/6
f 28/15/2 23/3/2 31/6/2
f 31/6/2 32/19/2 28/15/2
f 32/23/5 31/22/5 4/29/5
f 4/29/5 33/31/5 32/23/5
f 34/32/3 3/25/3 23/8/3
f 23/8/3 28/24/3 34/32/3
f 33/16/1 4/4/1 3/3/1
f 3/3/1 34/15/1 33/16/1
f 38/34/5 36/15/5 35/23/5
f 35/23/5 37/33/5 38/34/5
f 24/34/1 28/15/1 29/17/1
f 29/17/1 26/35/1 24/34/1
f 27/36/2 30/18/2 19/15/2
f 19/15/2 25/34/2 27/36/2
f 26/37/3 29/24/3 30/15/3
f 30/15/3 27/34/3 26/37/3
f 20/4/4 19/3/4 28/9/4
f 28/9/4 32/10/4 20/4/4
f 32/16/1 28/15/1 24/34/1
f 24/34/1 39/38/1 32/16/1
f 40/39/2 25/34/2 19/15/2
f 19/15/2 20/19/2 40/39/2
f 39/30/6 24/9/6 25/3/6
f 25/3/6 40/6/6 39/30/6
f 42/41/4 14/4/4 16/10/4
f 16/10/4 41/40/4 42/41/4
f 41/42/1 16/2/1 31/4/1
f 31/4/1 43/41/1 41/42/1
f 44/44/2 17/6/2 14/5/2
f 14/5/2 42/43/2 44/44/2
f 36/15/5 44/3/5 53/52/5
f 53/52/5 54/53/5 36/15/5
f 20/19/2 17/6/2 44/44/2
f 44/44/2 36/54/2 20/19/2
f 55/56/3 48/55/3 17/3/3
f 17/3/3 20/15/3 55/56/3
f 54/59/1 53/41/1 48/57/1
f 48/57/1 55/58/1 54/59/1
f 35/59/1 43/41/1 31/4/1
f 31/4/1 32/16/1 35/59/1
f 70/73/3 58/67/3 67/68/3
f 67/68/3 69/72/3 70/73/3
f 73/83/5 65/70/5 56/71/5
f 56/71/5 54/53/5 73/83/5
f 62/81/1 67/79/1 68/78/1
f 68/78/1 63/80/1 62/81/1
f 79/87/3 69/72/3 67/68/3
f 67/68/3 62/86/3 79/87/3
f 78/89/2 72/61/2 69/46/2
f 69/46/2 79/88/2 78/89/2
f 63/80/1 68/78/1 65/84/1
f 65/84/1 59/85/1 63/80/1
f 59/91/5 65/70/5 73/83/5
f 73/83/5 60/90/5 59/91/5
f 60/63/2 73/60/2 72/61/2
f 72/61/2 78/89/2 60/63/2
f 84/93/1 82/42/1 81/41/1
f 81/41/1 83/92/1 84/93/1
f 88/92/4 42/41/4 41/40/4
f 41/40/4 87/96/4 88/92/4
f 92/98/2 90/44/2 89/43/2
f 89/43/2 91/97/2 92/98/2
f 95/22/3 17/3/3 14/1/3
f 14/1/3 94/27/3 95/22/3
f 97/101/4 42/41/4 88/92/4
f 88/92/4 96/100/4 97/101/4
f 106/105/3 16/7/3 31/8/3
f 31/8/3 105/104/3 106/105/3
f 110/109/4 87/96/4 41/40/4
f 41/40/4 109/108/4 110/109/4
f 90/29/3 99/22/3 97/27/3
f 97/27/3 89/28/3 90/29/3
f 89/113/4 97/101/4 96/100/4
f 96/100/4 91/112/4 89/113/4
f 116/115/6 114/103/6 113/102/6
f 113/102/6 115/114/6 116/115/6
f 91/26/5 96/7/5 100/8/5
f 100/8/5 92/25/5 91/26/5
f 114/117/1 100/92/1 99/41/1
f 99/41/1 113/116/1 114/117/1
f 113/119/3 99/22/3 90/29/3
f 90/29/3 115/118/3 113/119/3
f 120/121/5 118/25/5 117/8/5
f 117/8/5 119/120/5 120/121/5
f 115/123/2 90/44/2 92/98/2
f 92/98/2 116/122/2 115/123/2
f 82/125/3 109/105/3 108/104/3
f 108/104/3 81/124/3 82/125/3
f 124/127/6 122/107/6 121/106/6
f 121/106/6 123/126/6 124/127/6
f 84/129/4 110/109/4 109/108/4
f 109/108/4 82/128/4 84/129/4
f 83/131/5 107/111/5 110/110/5
f 110/110/5 84/130/5 83/131/5
f 126/123/2 108/44/2 107/98/2
f 107/98/2 125/122/2 126/123/2
f 130/133/5 128/111/5 127/131/5
f 127/131/5 129/132/5 130/133/5
f 131/135/3 81/124/3 108/104/3
f 108/104/3 126/134/3 131/135/3
f 132/117/1 83/92/1 81/41/1
f 81/41/1 131/116/1 132/117/1
f 16/5/2 41/43/2 43/44/2
f 43/44/2 31/6/2 16/5/2
f 135/30/6 133/62/6 126/107/6
f 126/107/6 134/136/6 135/30/6
f 106/137/4 109/108/4 41/40/4
f 41/40/4 16/10/4 106/137/4
f 105/4/1 108/41/1 109/42/1
f 109/42/1 106/2/1 105/4/1
f 133/119/5 43/22/5 108/111/5
f 108/111/5 126/133/5 133/119/5
f 126/116/1 108/41/1 105/4/1
f 105/4/1 134/138/1 126/116/1
f 135/139/2 31/6/2 43/44/2
f 43/44/2 133/123/2 135/139/2
f 134/134/3 105/104/3 31/8/3
f 31/8/3 135/120/3 134/134/3
f 17/4/1 44/41/1 42/42/1
f 42/42/1 14/2/1 17/4/1
f 14/4/4 42/41/4 97/101/4
f 97/101/4 94/140/4 14/4/4
f 138/141/6 113/102/6 136/44/6
f 136/44/6 137/6/6 138/141/6
f 94/5/2 97/43/2 99/44/2
f 99/44/2 95/6/2 94/5/2
f 113/120/5 99/8/5 44/3/5
f 44/3/5 136/142/5 113/120/5
f 136/116/1 44/41/1 17/4/1
f 17/4/1 137/138/1 136/116/1
f 138/139/2 95/6/2 99/44/2
f 99/44/2 113/123/2 138/139/2
f 137/142/3 17/3/3 95/22/3
f 95/22/3 138/119/3 137/142/3
f 49/145/4 54/85/4 55/143/4
f 55/143/4 52/144/4 49/145/4
f 75/147/4 57/78/4 58/79/4
f 58/79/4 74/146/4 75/147/4
f 76/76/6 70/88/6 71/89/6
f 71/89/6 77/77/6 76/76/6
f 80/148/4 56/84/4 57/78/4
f 57/78/4 75/147/4 80/148/4
f 77/77/6 71/89/6 54/63/6
f 54/63/6 49/48/6 77/77/6
f 36/41/4 20/4/4 32/10/4
f 32/10/4 35/40/4 36/41/4
f 35/59/1 32/16/1 39/38/1
f 39/38/1 37/149/1 35/59/1
f 38/150/2 40/39/2 20/19/2
f 20/19/2 36/54/2 38/150/2
f 133/62/6 135/30/6 137/6/6
f 137/6/6 136/44/6 133/62/6
f 135/120/3 39/37/3 40/34/3
f 40/34/3 137/142/3 135/120/3
f 137/139/2 40/39/2 38/150/2
f 38/150/2 136/123/2 137/139/2
f 133/116/1 37/149/1 39/38/1
f 39/38/1 135/138/1 133/116/1
f 136/142/5 38/34/5 37/33/5
f 37/33/5 133/119/5 136/142/5
f 128/152/4 107/109/4 83/129/4
f 83/129/4 127/151/4 128/152/4
f 127/154/1 83/92/1 132/117/1
f 132/117/1 129/153/1 127/154/1
f 129/156/6 132/126/6 125/106/6
f 125/106/6 130/155/6 129/156/6
f 85/158/4 107/109/4 128/152/4
f 128/152/4 139/157/4 85/158/4
f 118/161/4 92/112/4 100/100/4
f 100/100/4 117/160/4 118/161/4
f 146/154/1 93/92/1 144/117/1
f 144/117/1 145/153/1 146/154/1
f 120/163/2 116/122/2 92/98/2
f 92/98/2 118/162/2 120/163/2
f 119/165/6 114/103/6 116/115/6
f 116/115/6 120/164/6 119/165/6
f 93/167/3 100/22/3 114/119/3
f 114/119/3 144/166/3 93/167/3
f 146/170/4 117/160/4 100/100/4
f 100/100/4 93/169/4 146/170/4
f 145/171/5 119/120/5 117/8/5
f 117/8/5 146/52/5 145/171/5
f 151/168/2 156/99/2 85/98/2
f 85/98/2 139/162/2 151/168/2
f 144/166/3 154/174/3 155/67/3
f 155/67/3 157/73/3 144/166/3
f 158/177/5 152/172/5 153/173/5
f 153/173/5 145/171/5 158/177/5
f 157/73/3 155/67/3 156/86/3
f 156/86/3 159/87/3 157/73/3
f 160/90/5 151/91/5 152/172/5
f 152/172/5 158/177/5 160/90/5
f 159/169/4 156/158/4 151/157/4
f 151/157/4 160/170/4 159/169/4
f 163/160/4 96/100/4 88/92/4
f 88/92/4 162/154/4 163/160/4
f 117/162/2 100/98/2 96/97/2
f 96/97/2 163/178/2 117/162/2
f 162/154/4 88/92/4 87/96/4
f 87/96/4 165/180/4 162/154/4
f 165/180/4 87/96/4 110/109/4
f 110/109/4 166/152/4 165/180/4
f 166/181/1 110/93/1 107/92/1
f 107/92/1 128/154/1 166/181/1
f 168/107/2 113/123/2 114/122/2
f 114/122/2 167/106/2 168/107/2
f 121/183/5 125/133/5 132/132/5
f 132/132/5 123/182/5 121/183/5
f 124/185/3 131/135/3 126/134/3
f 126/134/3 122/184/3 124/185/3
f 123/109/1 132/117/1 131/116/1
f 131/116/1 124/108/1 123/109/1
f 113/101/4 126/108/4 125/109/4
f 125/109/4 114/100/4 113/101/4
f 114/120/5 125/133/5 121/183/5
f 121/183/5 167/186/5 114/120/5
f 168/187/3 122/184/3 126/134/3
f 126/134/3 113/119/3 168/187/3
f 167/103/6 121/106/6 122/107/6
f 122/107/6 168/102/6 167/103/6
f 175/193/2 118/162/2 173/178/2
f 173/178/2 174/192/2 175/193/2
f 182/198/1 180/181/1 127/154/1
f 127/154/1 181/190/1 182/198/1
f 118/29/3 117/22/3 163/27/3
f 163/27/3 173/28/3 118/29/3
f 173/161/4 163/160/4 172/191/4
f 172/191/4 174/199/4 173/161/4
f 185/200/6 183/188/6 147/165/6
f 147/165/6 184/164/6 185/200/6
f 174/26/5 172/7/5 169/8/5
f 169/8/5 175/25/5 174/26/5
f 104/202/4 172/191/4 171/190/4
f 171/190/4 102/201/4 104/202/4
f 103/204/2 169/193/2 172/192/2
f 172/192/2 104/203/2 103/204/2
f 102/201/4 171/190/4 177/195/4
f 177/195/4 45/205/4 102/201/4
f 45/205/4 177/195/4 178/196/4
f 178/196/4 111/206/4 45/205/4
f 111/207/1 178/198/1 179/190/1
f 179/190/1 112/201/1 111/207/1
f 180/125/3 166/105/3 128/104/3
f 128/104/3 127/124/3 180/125/3
f 189/156/6 187/155/6 186/197/6
f 186/197/6 188/208/6 189/156/6
f 182/209/4 178/196/4 166/152/4
f 166/152/4 180/151/4 182/209/4
f 181/131/5 179/111/5 178/110/5
f 178/110/5 182/130/5 181/131/5
f 141/211/2 128/162/2 179/193/2
f 179/193/2 190/210/2 141/211/2
f 190/213/5 179/111/5 181/131/5
f 181/131/5 191/212/5 190/213/5
f 192/215/3 127/124/3 128/104/3
f 128/104/3 141/214/3 192/215/3
f 191/217/1 181/190/1 127/154/1
f 127/154/1 192/216/1 191/217/1
f 183/217/1 169/190/1 117/154/1
f 117/154/1 147/216/1 183/217/1
f 147/219/3 117/22/3 118/29/3
f 118/29/3 184/218/3 147/219/3
f 185/221/5 175/25/5 169/8/5
f 169/8/5 183/220/5 185/221/5
f 184/211/2 118/162/2 175/193/2
f 175/193/2 185/210/2 184/211/2
f 141/216/1 130/153/1 125/117/1
f 125/117/1 140/222/1 141/216/1
f 140/214/3 125/134/3 154/174/3
f 154/174/3 142/223/3 140/214/3
f 143/224/5 153/173/5 130/133/5
f 130/133/5 141/213/5 143/224/5
f 142/223/3 154/174/3 144/166/3
f 144/166/3 150/225/3 142/223/3
f 149/226/5 145/171/5 153/173/5
f 153/173/5 143/224/5 149/226/5
f 150/227/2 144/122/2 145/163/2
f 145/163/2 149/211/2 150/227/2
f 148/227/2 114/122/2 119/163/2
f 119/163/2 147/211/2 148/227/2
f 147/220/5 119/120/5 145/171/5
f 145/171/5 149/226/5 147/220/5
f 150/225/3 144/166/3 114/119/3
f 114/119/3 148/219/3 150/225/3
f 149/216/1 145/153/1 144/117/1
f 144/117/1 150/222/1 149/216/1
f 190/197/6 193/194/6 195/229/6
f 195/229/6 194/228/6 190/197/6
f 197/189/6 183/188/6 196/230/6
f 196/230/6 198/231/6 197/189/6
f 200/194/6 199/189/6 202/231/6
f 202/231/6 201/229/6 200/194/6
f 204/194/2 169/193/2 103/204/2
f 103/204/2 203/229/2 204/194/2
f 205/234/3 179/104/3 176/232/3
f 176/232/3 200/233/3 205/234/3
f 206/236/1 112/201/1 179/190/1
f 179/190/1 205/235/1 206/236/1
f 200/233/3 176/232/3 170/11/3
f 170/11/3 199/237/3 200/233/3
f 199/237/3 170/11/3 169/22/3
f 169/22/3 204/238/3 199/237/3
f 194/239/1 206/236/1 205/235/1
f 205/235/1 190/217/1 194/239/1
f 183/210/2 204/194/2 203/229/2
f 203/229/2 196/240/2 183/210/2
f 197/241/3 199/237/3 204/238/3
f 204/238/3 183/219/3 197/241/3
f 196/220/5 203/243/5 202/242/5
f 202/242/5 198/244/5 196/220/5
f 198/239/1 202/246/1 199/245/1
f 199/245/1 197/217/1 198/239/1
f 207/254/2 208/253/2 200/256/2
f 200/256/2 201/255/2 207/254/2
f 198/240/2 197/210/2 209/253/2
f 209/253/2 210/254/2 198/240/2
f 197/241/3 193/251/3 208/252/3
f 208/252/3 209/36/3 197/241/3
f 198/231/6 195/229/6 193/194/6
f 193/194/6 197/189/6 198/231/6
f 210/35/5 207/249/5 195/250/5
f 195/250/5 198/244/5 210/35/5
f 209/260/4 208/258/4 207/257/4
f 207/257/4 210/259/4 209/260/4
f 212/262/2 147/211/2 183/210/2
f 183/210/2 211/261/2 212/262/2
f 186/264/5 190/213/5 191/212/5
f 191/212/5 188/263/5 186/264/5
f 189/266/3 192/215/3 141/214/3
f 141/214/3 187/265/3 189/266/3
f 188/268/1 191/217/1 192/216/1
f 192/216/1 189/267/1 188/268/1
f 147/160/4 141/152/4 190/196/4
f 190/196/4 183/191/4 147/160/4
f 183/220/5 190/213/5 186/264/5
f 186/264/5 211/269/5 183/220/5
f 212/270/3 187/265/3 141/214/3
f 141/214/3 147/219/3 212/270/3
f 211/188/6 186/197/6 187/155/6
f 187/155/6 212/165/6 211/188/6
f 202/242/5 213/271/5 216/274/5
f 216/274/5 201/248/5 202/242/5
f 213/231/7 213/231/7 216/229/7
f 216/229/7 216/229/7 213/231/7
f 202/231/7 202/231/7 213/231/7
f 213/231/7 213/231/7 202/231/7
f 216/229/7 216/229/7 201/229/7
f 201/229/7 201/229/7 216/229/7
f 201/229/7 201/229/7 202/231/7
f 202/231/7 202/231/7 201/229/7
f 60/90/5 53/52/5 64/69/5
f 64/69/5 59/91/5 60/90/5
f 59/85/1 64/41/1 66/275/1
f 66/275/1 63/80/1 59/85/1
f 61/47/2 48/276/2 53/44/2
f 53/44/2 60/63/2 61/47/2
f 62/86/3 47/66/3 48/167/3
f 48/167/3 61/87/3 62/86/3
f 63/80/1 66/275/1 47/4/1
f 47/4/1 62/81/1 63/80/1

