# ProBuilder 5.1.1
# https://unity3d.com/unity/features/worldbuilding/probuilder
# 27/03/2024 16:58:16

mtllib ./Room_4.mtl
o Room 4

g Room 4
v -68 2 -22
v -68 3 -22
v -68 2 -21
v -68 3 -21
v -63 3 -22
v -62 3 -22
v -63 3 -21
v -62 3 -21
v -57 3 -22
v -57 2 -22
v -57 3 -21
v -57 2 -21
v -62 2 -22
v -63 2 -22
v -62 2 -21
v -63 2 -21
v -63 2 -10
v -63 3 -10
v -62 2 -10
v -62 3 -10
v -63 10 -22
v -63 10 -21
v -68 10 -22
v -68 10 -21
v -68 3 -10
v -68 2 -10
v -62 10 -21
v -62 10 -22
v -57 10 -21
v -57 10 -22
v -57 2 -10
v -57 3 -10
v -62 9 -21
v -62 9 -22
v -57 9 -21
v -57 9 -22
v -63 7 -22
v -63 7 -21
v -68 7 -22
v -68 7 -21
v -62 7 -22
v -62 7 -21
v -68 9 -22
v -63 9 -22
v -63 9 -21
v -68 9 -21
v -63 5 -22
v -63 5 -21
v -62 5 -22
v -62 5 -21
v -68 3 -11
v -63 3 -11
v -62 2 -11
v -63 2 -11
v -62 3 -11
v -57 2 -11
v -68 2 -11
v -69 2 -21
v -69 3 -21
v -69 2 -11
v -69 3 -11
v -57 3 -11
v -56.75 3 -21
v -56 2 -21
v -56.75 3 -11
v -56 2 -11
v -56 3 -22
v -56 2 -22
v -56 2 -10
v -56 3 -10
v -56.75 9 -21
v -56 4 -22
v -57 4 -22
v -56.75 3 -17
v -57 3 -17
v -56.75 9 -17
v -57 9 -17
v -57 9 -11
v -56.75 9 -11
v -57 9 -10
v -56 9 -10
v -57 3 -16
v -56.75 3 -16
v -56.75 9 -16
v -57 9 -16
v -62 9 -11
v -62 9 -10
v -68 9 -11
v -63 9 -11
v -68 9 -10
v -63 9 -10
v -62 7 -11
v -57 7 -11
v -62 7 -10
v -57 7 -10
v -68 7 -11
v -63 7 -11
v -68 7 -10
v -63 7 -10
v -62 5 -10
v -62 5 -11
v -63 5 -10
v -63 5 -11
v -69 9 -21
v -69 9 -11
v -62 10 -11
v -63 10 -11
v -68 10 -11
v -57 10 -11
v -57 5 -16
v -56.75 5 -16
v -57 5 -17
v -56.75 5 -17

vt 0 0
vt -1 0
vt 0 1
vt -1 1
vt 1 0
vt 1 1
vt 0 -1
vt 1 -1
vt -1 -1
vt 0 5
vt -1 5
vt -5 1
vt -5 0
vt 5 0
vt 5 1
vt 1 5
vt -1 -6
vt 0 -6
vt -6 1
vt -6 0
vt 6 0
vt 6 1
vt 1 -6
vt -7 1
vt -7 0
vt 7 -6
vt 7 -1
vt -7 -1
vt -7 -6
vt 7 0
vt 7 1
vt -5 5
vt 5 5
vt -7 5
vt 7 5
vt -5 -1
vt 5 -1
vt -3 0
vt -3 1
vt -3 -1
vt 3 0
vt 3 -1
vt 3 1
vt 5 11
vt 0 11
vt 1 11
vt -1 11
vt 6 11
vt -5 11
vt -6 11
vt -2.95 1
vt -4.2 1
vt -2.95 11
vt -4.2 11
vt -1 -7
vt 0 -7
vt -6.25 11
vt -6.25 1
vt 7 11
vt 1 -7
vt -7.060181 -6.25
vt -7.060181 -6
vt -1.961161 -7
vt -1.961161 -6
vt -4.2 0
vt -3.4 0
vt 1 -6.25
vt 7 -6.25
vt 1 -4.2
vt 1 -2.95
vt 2 -4.2
vt 7 -2.95
vt -2 0
vt -2 -6
vt -2 -7
vt 6.25 1
vt 6.25 5
vt 6 5
vt -6 5
vt -6.25 5
vt 0 12
vt -1 12
vt 7 12
vt 6 12
vt -6 12
vt -7 12
vt -2.95 12.3136
vt -4.2 12.3136
vt -3.4 13.47979
vt -4.2 13.17109
vt -7 11
vt 1 12.55
vt 1 13.8
vt 7 12.55
vt 7 13.8
vt 7 -7
vt 6.25 11
vt 6 6
vt 6.25 6
vt -6.25 6
vt -6 6
vt 1 12
vt 5 12
vt -5 12
vt -5 -6
vt 5 -6
vt 3 12
vt 3 11
vt -3 11
vt -3 12
vt 0 6
vt -1 6
vt 1 6
vt -7 6
vt 7 6
vt 8 -1
vt 8 0
vt -8 5
vt -8 0
vt 8 5
vt -8 1
vt -8 -1
vt 8 1
vt 8 -6
vt -8 -6
vt -8 11
vt 8 11
vt -3 6
vt 3 6
vt -3 -6
vt -3 -6.25
vt -7 -6.25
vt -1 -6.25
vt -3 5
vt 3 5

vn -1 0 0
vn 0 1 0
vn 1 0 0
vn 0 -1 0
vn 0 0 1
vn 0 0 -1
vn 0.8 0.6 0
vn 0 0.1961161 -0.9805807
vn 0.8 0.3 0.3
vn 0.8 0 0.6
vn 0.6859943 0.5144957 -0.5144957
vn 0.8429972 0.2572479 -0.2572479
vn 0.8 0 -0.6

usemtl ProBuilder_Default_URP
f 78/91/1 85/114/1 110/128/1
f 110/128/1 82/112/1 62/47/1
f 78/91/1 110/128/1 62/47/1
f 65/46/3 111/129/3 79/59/3
f 65/46/3 83/113/3 111/129/3
f 111/129/3 84/115/3 79/59/3
f 4/4/1 2/2/1 1/1/1
f 1/1/1 3/3/1 4/4/1
f 8/4/2 6/2/2 5/1/2
f 5/1/2 7/3/2 8/4/2
f 12/3/3 10/1/3 9/5/3
f 9/5/3 11/6/3 12/3/3
f 16/3/4 14/1/4 13/5/4
f 13/5/4 15/6/4 16/3/4
f 20/8/5 18/5/5 17/1/5
f 17/1/5 19/7/5 20/8/5
f 5/2/6 6/9/6 13/7/6
f 13/7/6 14/1/6 5/2/6
f 2/11/6 5/2/6 14/1/6
f 14/1/6 1/10/6 2/11/6
f 1/13/4 14/1/4 16/3/4
f 16/3/4 3/12/4 1/13/4
f 24/15/2 22/3/2 21/1/2
f 21/1/2 23/14/2 24/15/2
f 26/10/5 17/1/5 18/5/5
f 18/5/5 25/16/5 26/10/5
f 10/18/6 13/7/6 6/9/6
f 6/9/6 9/17/6 10/18/6
f 30/20/2 28/2/2 27/4/2
f 27/4/2 29/19/2 30/20/2
f 12/22/4 15/6/4 13/5/4
f 13/5/4 10/21/4 12/22/4
f 32/23/5 20/8/5 19/7/5
f 19/7/5 31/18/5 32/23/5
f 34/25/1 6/2/1 8/4/1
f 8/4/1 33/24/1 34/25/1
f 33/27/5 8/8/5 11/23/5
f 11/23/5 35/26/5 33/27/5
f 36/29/6 9/17/6 6/9/6
f 6/9/6 34/28/6 36/29/6
f 35/31/3 11/6/3 9/5/3
f 9/5/3 36/30/3 35/31/3
f 38/15/3 7/6/3 5/5/3
f 5/5/3 37/14/3 38/15/3
f 37/13/6 5/2/6 2/11/6
f 2/11/6 39/32/6 37/13/6
f 40/33/5 4/16/5 7/5/5
f 7/5/5 38/14/5 40/33/5
f 39/13/1 2/2/1 4/4/1
f 4/4/1 40/12/1 39/13/1
f 33/31/3 42/15/3 41/14/3
f 41/14/3 34/30/3 33/31/3
f 44/25/6 37/13/6 39/32/6
f 39/32/6 43/34/6 44/25/6
f 46/35/5 40/33/5 38/14/5
f 38/14/5 45/30/5 46/35/5
f 43/25/1 39/13/1 40/12/1
f 40/12/1 46/24/1 43/25/1
f 50/6/4 48/3/4 47/1/4
f 47/1/4 49/5/4 50/6/4
f 41/36/6 37/13/6 44/25/6
f 44/25/6 34/28/6 41/36/6
f 33/27/5 45/30/5 38/14/5
f 38/14/5 42/37/5 33/27/5
f 28/2/2 21/1/2 22/3/2
f 22/3/2 27/4/2 28/2/2
f 48/39/1 38/12/1 37/13/1
f 37/13/1 47/38/1 48/39/1
f 47/38/6 37/13/6 41/36/6
f 41/36/6 49/40/6 47/38/6
f 50/42/5 42/37/5 38/14/5
f 38/14/5 48/41/5 50/42/5
f 49/41/3 41/14/3 42/15/3
f 42/15/3 50/43/3 49/41/3
f 52/45/2 7/3/2 4/15/2
f 4/15/2 51/44/2 52/45/2
f 54/45/4 16/3/4 15/6/4
f 15/6/4 53/46/4 54/45/4
f 55/47/2 8/4/2 7/3/2
f 7/3/2 52/45/2 55/47/2
f 53/46/4 15/6/4 12/22/4
f 12/22/4 56/48/4 53/46/4
f 57/49/4 3/12/4 16/3/4
f 16/3/4 54/45/4 57/49/4
f 61/47/1 59/4/1 58/3/1
f 58/3/1 60/45/1 61/47/1
f 62/50/2 11/19/2 8/4/2
f 8/4/2 55/47/2 62/50/2
f 66/54/7 64/52/7 63/51/7
f 63/51/7 65/53/7 66/54/7
f 68/56/6 10/18/6 9/17/6
f 9/17/6 67/55/6 68/56/6
f 63/58/2 11/19/2 62/50/2
f 62/50/2 65/57/2 63/58/2
f 66/59/4 56/48/4 12/22/4
f 12/22/4 64/31/4 66/59/4
f 70/60/5 32/23/5 31/18/5
f 31/18/5 69/56/5 70/60/5
f 10/1/1 12/3/1 11/4/1
f 11/4/1 9/2/1 10/1/1
f 73/64/8 35/62/8 71/61/8
f 71/61/8 72/63/8 73/64/8
f 68/30/4 64/31/4 12/22/4
f 12/22/4 10/21/4 68/30/4
f 67/66/10 63/51/9 64/52/7
f 64/52/7 68/65/9 67/66/10
f 77/26/5 75/23/5 74/67/5
f 74/67/5 76/68/5 77/26/5
f 71/72/10 63/70/10 67/69/10
f 67/69/10 72/71/10 71/72/10
f 73/73/1 9/2/1 11/4/1
f 11/4/1 35/24/1 73/73/1
f 72/75/6 67/55/6 9/17/6
f 9/17/6 73/74/6 72/75/6
f 75/78/4 11/22/4 63/76/4
f 63/76/4 74/77/4 75/78/4
f 74/16/3 63/6/3 71/31/3
f 71/31/3 76/35/3 74/16/3
f 77/34/1 35/24/1 11/4/1
f 11/4/1 75/11/1 77/34/1
f 76/80/2 71/58/2 35/19/2
f 35/19/2 77/79/2 76/80/2
f 32/82/1 62/47/1 56/45/1
f 56/45/1 31/81/1 32/82/1
f 31/84/4 56/48/4 66/59/4
f 66/59/4 69/83/4 31/84/4
f 81/86/2 79/57/2 78/50/2
f 78/50/2 80/85/2 81/86/2
f 69/90/3 66/88/12 65/87/11
f 65/87/11 70/89/12 69/90/3
f 78/91/1 62/47/1 32/82/1
f 32/82/1 80/86/1 78/91/1
f 81/95/13 70/93/13 65/92/13
f 65/92/13 79/94/13 81/95/13
f 80/26/5 32/23/5 70/60/5
f 70/60/5 81/96/5 80/26/5
f 83/99/4 65/97/4 62/48/4
f 62/48/4 82/98/4 83/99/4
f 85/101/2 78/50/2 79/57/2
f 79/57/2 84/100/2 85/101/2
f 20/82/1 55/47/1 53/45/1
f 53/45/1 19/81/1 20/82/1
f 19/102/4 53/46/4 56/48/4
f 56/48/4 31/84/4 19/102/4
f 80/85/2 78/50/2 86/47/2
f 86/47/2 87/82/2 80/85/2
f 31/81/3 56/45/3 62/46/3
f 62/46/3 32/102/3 31/81/3
f 91/81/2 89/45/2 88/44/2
f 88/44/2 90/103/2 91/81/2
f 17/81/4 54/45/4 53/46/4
f 53/46/4 19/102/4 17/81/4
f 20/82/2 55/47/2 52/45/2
f 52/45/2 18/81/2 20/82/2
f 19/81/3 53/45/3 55/46/3
f 55/46/3 20/102/3 19/81/3
f 26/104/4 57/49/4 54/45/4
f 54/45/4 17/81/4 26/104/4
f 25/82/1 51/47/1 57/45/1
f 57/45/1 26/81/1 25/82/1
f 93/105/6 62/17/6 55/9/6
f 55/9/6 92/36/6 93/105/6
f 92/49/1 55/47/1 20/82/1
f 20/82/1 94/104/1 92/49/1
f 95/103/3 32/102/3 62/46/3
f 62/46/3 93/44/3 95/103/3
f 94/37/5 20/8/5 32/23/5
f 32/23/5 95/106/5 94/37/5
f 97/13/6 52/2/6 51/11/6
f 51/11/6 96/32/6 97/13/6
f 96/49/1 51/47/1 25/82/1
f 25/82/1 98/104/1 96/49/1
f 99/103/3 18/102/3 52/46/3
f 52/46/3 97/44/3 99/103/3
f 98/33/5 25/16/5 18/5/5
f 18/5/5 99/14/5 98/33/5
f 78/29/6 93/105/6 92/36/6
f 92/36/6 86/28/6 78/29/6
f 89/91/1 97/49/1 99/104/1
f 99/104/1 91/86/1 89/91/1
f 80/83/3 95/103/3 93/44/3
f 93/44/3 78/59/3 80/83/3
f 87/27/5 94/37/5 95/106/5
f 95/106/5 80/26/5 87/27/5
f 89/25/6 97/13/6 96/32/6
f 96/32/6 88/34/6 89/25/6
f 88/91/1 96/49/1 98/104/1
f 98/104/1 90/86/1 88/91/1
f 91/83/3 99/103/3 97/44/3
f 97/44/3 89/59/3 91/83/3
f 90/35/5 98/33/5 99/14/5
f 99/14/5 91/30/5 90/35/5
f 103/45/4 101/46/4 100/102/4
f 100/102/4 102/81/4 103/45/4
f 99/14/5 94/37/5 87/27/5
f 87/27/5 91/30/5 99/14/5
f 89/25/6 86/28/6 92/36/6
f 92/36/6 97/13/6 89/25/6
f 91/81/2 87/82/2 86/47/2
f 86/47/2 89/45/2 91/81/2
f 101/108/3 92/44/3 94/103/3
f 94/103/3 100/107/3 101/108/3
f 100/42/5 94/37/5 99/14/5
f 99/14/5 102/41/5 100/42/5
f 103/38/6 97/13/6 92/36/6
f 92/36/6 101/40/6 103/38/6
f 102/110/1 99/104/1 97/49/1
f 97/49/1 103/109/1 102/110/1
f 59/112/6 4/11/6 3/10/6
f 3/10/6 58/111/6 59/112/6
f 58/19/4 3/12/4 57/49/4
f 57/49/4 60/50/4 58/19/4
f 105/48/2 88/44/2 46/15/2
f 46/15/2 104/22/2 105/48/2
f 60/111/5 57/10/5 51/16/5
f 51/16/5 61/113/5 60/111/5
f 88/59/3 51/46/3 4/6/3
f 4/6/3 46/31/3 88/59/3
f 46/34/6 4/11/6 59/112/6
f 59/112/6 104/114/6 46/34/6
f 105/115/5 61/113/5 51/16/5
f 51/16/5 88/35/5 105/115/5
f 104/24/1 59/4/1 61/47/1
f 61/47/1 105/91/1 104/24/1
f 107/117/5 89/30/5 86/27/5
f 86/27/5 106/116/5 107/117/5
f 21/119/6 44/25/6 43/34/6
f 43/34/6 23/118/6 21/119/6
f 108/120/5 88/35/5 89/30/5
f 89/30/5 107/117/5 108/120/5
f 23/119/1 43/25/1 46/24/1
f 46/24/1 24/121/1 23/119/1
f 28/122/6 34/28/6 44/25/6
f 44/25/6 21/119/6 28/122/6
f 27/123/3 33/31/3 34/30/3
f 34/30/3 28/117/3 27/123/3
f 28/119/1 34/25/1 33/24/1
f 33/24/1 27/121/1 28/119/1
f 106/116/5 86/27/5 78/26/5
f 78/26/5 109/124/5 106/116/5
f 30/125/6 36/29/6 34/28/6
f 34/28/6 28/122/6 30/125/6
f 29/123/3 35/31/3 36/30/3
f 36/30/3 30/117/3 29/123/3
f 88/49/4 46/12/4 45/3/4
f 45/3/4 89/45/4 88/49/4
f 106/47/2 27/4/2 22/3/2
f 22/3/2 107/45/2 106/47/2
f 108/126/1 24/121/1 46/24/1
f 46/24/1 88/91/1 108/126/1
f 107/45/2 22/3/2 24/15/2
f 24/15/2 108/44/2 107/45/2
f 89/45/4 45/3/4 33/6/4
f 33/6/4 86/46/4 89/45/4
f 86/59/3 33/31/3 27/123/3
f 27/123/3 106/127/3 86/59/3
f 86/46/4 33/6/4 35/22/4
f 35/22/4 78/48/4 86/46/4
f 78/59/3 35/31/3 29/123/3
f 29/123/3 109/127/3 78/59/3
f 106/126/1 27/121/1 33/24/1
f 33/24/1 86/91/1 106/126/1
f 109/50/2 29/19/2 27/4/2
f 27/4/2 106/47/2 109/50/2
f 112/130/6 77/29/6 76/132/6
f 76/132/6 113/131/6 112/130/6
f 82/17/6 110/130/6 111/131/6
f 111/131/6 83/133/6 82/17/6
f 77/79/2 85/101/2 84/100/2
f 84/100/2 76/80/2 77/79/2
f 112/134/1 110/128/1 85/114/1
f 85/114/1 77/34/1 112/134/1
f 113/77/4 111/99/4 110/98/4
f 110/98/4 112/78/4 113/77/4
f 76/35/3 84/115/3 111/129/3
f 111/129/3 113/135/3 76/35/3

