# ProBuilder 5.1.1
# https://unity3d.com/unity/features/worldbuilding/probuilder
# 27/03/2024 17:02:27

mtllib ./Room_6.mtl
o Room 6

g Room 6
v -68 2 1
v -68 3 1
v -68 2 18
v -68 3 18
v -63 3 1
v -62 3 1
v -63 3 18
v -62 3 18
v -53 3 1
v -53 2 1
v -53 3 18
v -53 2 18
v -62 2 1
v -63 2 1
v -62 2 18
v -63 2 18
v -57 3 1
v -57 2 1
v -57 3 18
v -57 2 18
v -54 3 1
v -54 2 1
v -57 5 18
v -57 5 1
v -54 5 18
v -54 5 1
v -54 2 18
v -54 3 18
v -54 16 18
v -54 16 1
v -53 16 18
v -53 16 1
v -54 10 18
v -54 10 1
v -53 10 18
v -53 10 1
v -68 10 18
v -68 10 1
v -68 11 18
v -68 11 1
v -53 11 18
v -54 11 18
v -54 11 1
v -53 11 1
v -54 15 18
v -54 15 1
v -68 15 18
v -68 15 1
v -54 11 19
v -54 10 19
v -68 11 19
v -68 10 19
v -68 15 19
v -54 15 19
v -54 2 19
v -68 2 19
v -53 15 18
v -53 15 1
v -68 16 18
v -68 16 1

vt 0 0
vt -1 0
vt 0 17
vt -1 17
vt 1 0
vt 1 17
vt 0 -1
vt 1 -1
vt -1 -1
vt -1 -6
vt 0 -6
vt -6 17
vt -6 0
vt 6 0
vt 6 17
vt 1 -6
vt 0 5
vt -1 5
vt -5 17
vt -5 0
vt 5 0
vt 5 17
vt 1 5
vt -1 -9
vt 0 -9
vt -9 17
vt -9 0
vt 9 0
vt 9 17
vt 1 -9
vt -3 17
vt -3 0
vt 3 -9
vt 3 -6
vt -3 -6
vt -3 -9
vt 3 0
vt 3 17
vt -1 -10
vt 0 -10
vt -10 17
vt -10 0
vt 10 0
vt 10 17
vt 1 -10
vt -8 17
vt -8 0
vt 8 -10
vt 8 -9
vt -8 -9
vt -8 -10
vt 8 0
vt 8 17
vt 9 -10
vt 9 -9
vt -9 -9
vt -9 -10
vt 9 5
vt 8 5
vt -8 5
vt -9 5
vt 9 18
vt 8 18
vt 5 18
vt -9 18
vt -5 18
vt -8 18
vt 0 18
vt -13 17
vt -13 0
vt -13 5
vt -13 -9
vt 13 -9
vt 13 5
vt 13 0
vt 13 17
vt -13 18
vt 13 18
vt 13 -10
vt -13 -10
vt -14 17
vt -14 0
vt 14 -10
vt 14 -9
vt -14 -9
vt -14 -10
vt 14 0
vt 14 17
vt 14 5
vt -14 5

vn -1 0 0
vn 0 1 0
vn 1 0 0
vn 0 -1 0
vn 0 0 1
vn 0 0 -1

usemtl ProBuilder_Default_URP
f 3/3/1 4/4/1 2/2/1 1/1/1
f 7/3/2 8/4/2 6/2/2 5/1/2
f 11/6/3 12/3/3 10/1/3 9/5/3
f 15/6/4 16/3/4 14/1/4 13/5/4
f 15/7/5 8/8/5 7/5/5 16/1/5
f 14/1/6 5/2/6 6/9/6 13/7/6
f 17/10/6 18/11/6 13/7/6 6/9/6
f 19/12/2 17/13/2 6/2/2 8/4/2
f 18/14/4 20/15/4 15/6/4 13/5/4
f 20/11/5 19/16/5 8/8/5 15/7/5
f 1/17/6 2/18/6 5/2/6 14/1/6
f 3/19/4 1/20/4 14/1/4 16/3/4
f 2/21/2 4/22/2 7/3/2 5/1/2
f 4/23/5 3/17/5 16/1/5 7/5/5
f 21/24/6 22/25/6 18/11/6 17/10/6
f 25/26/2 26/27/2 24/13/2 23/12/2
f 22/28/4 27/29/4 20/15/4 18/14/4
f 27/25/5 28/30/5 19/16/5 20/11/5
f 23/31/1 24/32/1 17/2/1 19/4/1
f 25/33/5 23/34/5 19/16/5 28/30/5
f 24/35/6 26/36/6 21/24/6 17/10/6
f 26/37/3 25/38/3 28/6/3 21/5/3
f 9/39/6 10/40/6 22/25/6 21/24/6
f 31/41/2 32/42/2 30/27/2 29/26/2
f 10/43/4 12/44/4 27/29/4 22/28/4
f 12/40/5 11/45/5 28/30/5 27/25/5
f 33/46/1 34/47/1 21/2/1 28/4/1
f 35/48/5 33/49/5 28/30/5 11/45/5
f 34/50/6 36/51/6 9/39/6 21/24/6
f 36/52/3 35/53/3 11/6/3 9/5/3
f 39/26/1 40/27/1 38/47/1 37/46/1
f 41/54/5 42/55/5 33/49/5 35/48/5
f 43/56/6 44/57/6 36/51/6 34/50/6
f 44/28/3 41/29/3 35/53/3 36/52/3
f 47/19/4 48/20/4 46/28/4 45/29/4
f 51/58/5 52/59/5 50/49/5 49/55/5
f 38/60/6 40/61/6 43/56/6 34/50/6
f 49/62/3 50/63/3 33/53/3 42/29/3
f 53/64/2 54/65/2 45/26/2 47/22/2
f 55/62/4 56/66/4 3/19/4 27/29/4
f 52/67/1 51/65/1 39/26/1 37/46/1
f 27/25/6 3/17/6 37/60/6 33/50/6
f 55/68/3 27/3/3 33/53/3 50/63/3
f 3/3/1 56/68/1 52/67/1 37/46/1
f 56/17/5 55/25/5 50/49/5 52/59/5
f 45/69/1 46/70/1 34/47/1 33/46/1
f 47/71/6 45/72/6 33/50/6 37/60/6
f 46/73/5 48/74/5 38/59/5 34/49/5
f 48/75/3 47/76/3 37/53/3 38/52/3
f 47/71/6 45/72/6 42/56/6 39/61/6
f 53/77/1 47/69/1 39/26/1 51/65/1
f 45/76/3 54/78/3 49/62/3 42/29/3
f 54/73/5 53/74/5 51/58/5 49/55/5
f 45/69/1 46/70/1 43/27/1 42/26/1
f 57/79/5 45/73/5 42/55/5 41/54/5
f 46/72/6 58/80/6 44/57/6 43/56/6
f 58/75/3 57/76/3 41/29/3 44/28/3
f 59/81/1 60/82/1 48/70/1 47/69/1
f 31/83/5 29/84/5 45/73/5 57/79/5
f 30/85/6 32/86/6 58/80/6 46/72/6
f 32/87/3 31/88/3 57/76/3 58/75/3
f 47/19/4 48/20/4 46/28/4 45/29/4
f 59/89/5 47/74/5 45/73/5 29/84/5
f 48/71/6 60/90/6 30/85/6 46/72/6
f 60/21/2 59/22/2 29/26/2 30/27/2

